<svg xmlns="http://www.w3.org/2000/svg" aria-hidden="true" viewBox="0 0 410 404"><path fill="#41D1FF" d="M399.641 59.525 218.643 384.97c-3.737 6.72-13.385 6.76-17.177.07L17.949 59.556c-4.133-7.29 2.103-16.054 10.4-14.575l181.171 32.39a10.31 10.31 0 0 0 3.637-.01l177.353-32.32c8.264-1.506 14.566 7.18 10.732 14.485Z"/><path fill="#FFEA83" d="M292.965 1.574 158.105 27.99a4.92 4.92 0 0 0-3.968 4.532l-8.297 140.36a4.919 4.919 0 0 0 5.95 5.096l37.55-8.665a4.92 4.92 0 0 1 5.917 5.79l-11.154 54.621a4.918 4.918 0 0 0 6.23 5.69l23.193-7.046a4.918 4.918 0 0 1 6.232 5.697l-17.738 85.831c-1.288 6.234 7.006 9.64 10.488 4.323L218.55 219.6l-71.072-13.557Z"/></svg>
